<?xml version="1.0" encoding="utf-8"?>
<!-- Generator: Adobe Illustrator 17.0.0, SVG Export Plug-In . SVG Version: 6.00 Build 0)  -->
<!DOCTYPE svg PUBLIC "-//W3C//DTD SVG 1.1//EN" "http://www.w3.org/Graphics/SVG/1.1/DTD/svg11.dtd">
<svg version="1.1" xmlns="http://www.w3.org/2000/svg" xmlns:xlink="http://www.w3.org/1999/xlink" x="0px" y="0px"
	 width="70px" height="49.29px" viewBox="0 0 75.248 46.745" enable-background="new 0 0 75.248 46.745" xml:space="preserve">
<g id="Master_Logos">
	<g>
		<path fill="#626062" d="M16.144,41.699c-1.892,2.15-3.905,3.151-6.333,3.151c-4.325,0-7.844-3.648-7.844-8.132v-0.072
			c0-4.52,3.429-8.06,7.808-8.06c2.394,0,4.387,0.937,6.273,2.949l0.4,0.427l1.401-1.307l-0.406-0.429
			c-1.648-1.748-3.845-3.535-7.632-3.535c-2.665,0-5.149,1.052-6.994,2.963C1.001,31.535,0,34.031,0,36.682v0.073
			c0,5.509,4.385,9.991,9.775,9.991c3.078,0,5.628-1.234,7.796-3.773l0.364-0.427l-1.392-1.301L16.144,41.699z"/>
		<path fill="#626062" d="M23.408,30.564v-3.44h-1.932v19.189h1.932v-9.92c0-3.26,2.531-7.807,6.655-7.807h0.767v-1.89l-0.656-0.005
			C27.101,26.691,24.787,28.398,23.408,30.564"/>
		<path fill="#626062" d="M47.518,27.124v10.712c0,4.458-2.294,7.015-6.295,7.015c-4,0-6.295-2.557-6.295-7.015V27.124h-1.931
			v10.784c0,5.452,3.124,8.838,8.154,8.838h0.144c5.029,0,8.153-3.386,8.153-8.838V27.124H47.518z"/>
		<polygon fill="#3DB1C8" points="62.309,0.022 62.309,12.894 75.248,12.894 75.248,14.768 60.436,14.768 60.436,0 		"/>
		<polygon fill="#007398" points="56.248,12.894 56.248,3.836 58.122,3.841 58.122,14.768 47.042,14.768 47.042,12.894 		"/>
		<polygon fill="#DD7D1B" points="71.426,17.074 71.426,18.948 62.309,18.948 62.309,37.109 60.436,37.109 60.436,17.074 		"/>
		<polygon fill="#F9B625" points="58.123,17.074 58.123,26.711 58.122,31.957 56.248,31.957 56.248,18.948 43.278,18.948 
			43.278,17.074 		"/>
		<path fill="#626062" d="M64.966,36.329c0-0.454,0.366-0.822,0.82-0.822c0.454,0,0.82,0.368,0.82,0.822
			c0,0.451-0.366,0.82-0.82,0.82C65.332,37.149,64.966,36.781,64.966,36.329z M65.785,35.575c-0.414,0-0.747,0.343-0.747,0.755
			s0.333,0.75,0.747,0.75c0.414,0,0.747-0.338,0.747-0.75S66.199,35.575,65.785,35.575z M65.615,36.763H65.49v-0.887
			c0,0,0.283,0,0.286,0c0.223,0,0.338,0.103,0.338,0.273c0,0.13-0.07,0.216-0.175,0.256l0.223,0.358h-0.145l-0.203-0.328
			l-0.198,0.01V36.763z M65.77,36.332c0.145-0.003,0.218-0.068,0.218-0.176c0-0.115-0.073-0.168-0.226-0.168c-0.002,0-0.15,0-0.15,0
			v0.348L65.77,36.332z"/>
	</g>
</g>
<g id="Layer_4">
</g>
<g id="Labels">
</g>
</svg>
